<mxfile host="app.diagrams.net" modified="2024-02-17T20:26:15.878Z" agent="Mozilla/5.0 (Macintosh; Intel Mac OS X 10_15_7) AppleWebKit/605.1.15 (KHTML, like Gecko) Version/16.3 Safari/605.1.15" etag="GQrNfMsD_eprxjwv9IAW" version="23.1.3" type="github">
  <diagram name="Page-1" id="jDGg2XDlnrftS6wZm5wk">
    <mxGraphModel dx="1078" dy="704" grid="1" gridSize="10" guides="1" tooltips="1" connect="1" arrows="1" fold="1" page="1" pageScale="1" pageWidth="827" pageHeight="1169" math="0" shadow="0">
      <root>
        <mxCell id="0" />
        <mxCell id="1" parent="0" />
        <mxCell id="-10hCrtmPuV3ppHZvTB7-1" value="TCP Server" style="swimlane;whiteSpace=wrap;html=1;" vertex="1" parent="1">
          <mxGeometry x="560" y="630" width="200" height="200" as="geometry" />
        </mxCell>
        <mxCell id="-10hCrtmPuV3ppHZvTB7-15" value="Kaldi toolkit library&amp;nbsp;" style="text;strokeColor=none;fillColor=none;align=left;verticalAlign=middle;spacingLeft=4;spacingRight=4;overflow=hidden;points=[[0,0.5],[1,0.5]];portConstraint=eastwest;rotatable=0;whiteSpace=wrap;html=1;" vertex="1" parent="-10hCrtmPuV3ppHZvTB7-1">
          <mxGeometry x="20" y="50" width="130" height="30" as="geometry" />
        </mxCell>
        <mxCell id="-10hCrtmPuV3ppHZvTB7-16" value="VOSK model" style="text;strokeColor=none;fillColor=none;align=left;verticalAlign=middle;spacingLeft=4;spacingRight=4;overflow=hidden;points=[[0,0.5],[1,0.5]];portConstraint=eastwest;rotatable=0;whiteSpace=wrap;html=1;" vertex="1" parent="-10hCrtmPuV3ppHZvTB7-1">
          <mxGeometry x="20" y="90" width="130" height="30" as="geometry" />
        </mxCell>
        <mxCell id="-10hCrtmPuV3ppHZvTB7-19" value="Listen on a 5050 port" style="text;strokeColor=none;fillColor=none;align=left;verticalAlign=middle;spacingLeft=4;spacingRight=4;overflow=hidden;points=[[0,0.5],[1,0.5]];portConstraint=eastwest;rotatable=0;whiteSpace=wrap;html=1;" vertex="1" parent="-10hCrtmPuV3ppHZvTB7-1">
          <mxGeometry x="20" y="130" width="130" height="30" as="geometry" />
        </mxCell>
        <mxCell id="-10hCrtmPuV3ppHZvTB7-2" value="Web &amp;nbsp;Application" style="swimlane;whiteSpace=wrap;html=1;" vertex="1" parent="1">
          <mxGeometry x="520" y="210" width="530" height="310" as="geometry" />
        </mxCell>
        <mxCell id="-10hCrtmPuV3ppHZvTB7-3" value="Kaldi Server" style="swimlane;whiteSpace=wrap;html=1;" vertex="1" parent="-10hCrtmPuV3ppHZvTB7-2">
          <mxGeometry x="40" y="70" width="200" height="200" as="geometry" />
        </mxCell>
        <mxCell id="-10hCrtmPuV3ppHZvTB7-22" value="Kaldi Sink" style="text;strokeColor=none;fillColor=none;align=left;verticalAlign=middle;spacingLeft=4;spacingRight=4;overflow=hidden;points=[[0,0.5],[1,0.5]];portConstraint=eastwest;rotatable=0;whiteSpace=wrap;html=1;" vertex="1" parent="-10hCrtmPuV3ppHZvTB7-3">
          <mxGeometry x="20.000000000000227" y="50" width="80" height="30" as="geometry" />
        </mxCell>
        <mxCell id="-10hCrtmPuV3ppHZvTB7-23" value="Kaldi Queue" style="text;strokeColor=none;fillColor=none;align=left;verticalAlign=middle;spacingLeft=4;spacingRight=4;overflow=hidden;points=[[0,0.5],[1,0.5]];portConstraint=eastwest;rotatable=0;whiteSpace=wrap;html=1;" vertex="1" parent="-10hCrtmPuV3ppHZvTB7-3">
          <mxGeometry x="20.000000000000227" y="110" width="80" height="30" as="geometry" />
        </mxCell>
        <mxCell id="-10hCrtmPuV3ppHZvTB7-6" value="RTC Server" style="swimlane;whiteSpace=wrap;html=1;" vertex="1" parent="1">
          <mxGeometry x="800" y="280" width="200" height="200" as="geometry" />
        </mxCell>
        <mxCell id="-10hCrtmPuV3ppHZvTB7-7" value="Web components" style="swimlane;fontStyle=0;childLayout=stackLayout;horizontal=1;startSize=30;horizontalStack=0;resizeParent=1;resizeParentMax=0;resizeLast=0;collapsible=1;marginBottom=0;whiteSpace=wrap;html=1;" vertex="1" parent="-10hCrtmPuV3ppHZvTB7-6">
          <mxGeometry x="27" y="25" width="140" height="120" as="geometry" />
        </mxCell>
        <mxCell id="-10hCrtmPuV3ppHZvTB7-8" value="JS" style="text;strokeColor=none;fillColor=none;align=left;verticalAlign=middle;spacingLeft=4;spacingRight=4;overflow=hidden;points=[[0,0.5],[1,0.5]];portConstraint=eastwest;rotatable=0;whiteSpace=wrap;html=1;" vertex="1" parent="-10hCrtmPuV3ppHZvTB7-7">
          <mxGeometry y="30" width="140" height="30" as="geometry" />
        </mxCell>
        <mxCell id="-10hCrtmPuV3ppHZvTB7-9" value="HTML" style="text;strokeColor=none;fillColor=none;align=left;verticalAlign=middle;spacingLeft=4;spacingRight=4;overflow=hidden;points=[[0,0.5],[1,0.5]];portConstraint=eastwest;rotatable=0;whiteSpace=wrap;html=1;" vertex="1" parent="-10hCrtmPuV3ppHZvTB7-7">
          <mxGeometry y="60" width="140" height="30" as="geometry" />
        </mxCell>
        <mxCell id="-10hCrtmPuV3ppHZvTB7-10" value="CSS" style="text;strokeColor=none;fillColor=none;align=left;verticalAlign=middle;spacingLeft=4;spacingRight=4;overflow=hidden;points=[[0,0.5],[1,0.5]];portConstraint=eastwest;rotatable=0;whiteSpace=wrap;html=1;" vertex="1" parent="-10hCrtmPuV3ppHZvTB7-7">
          <mxGeometry y="90" width="140" height="30" as="geometry" />
        </mxCell>
        <mxCell id="-10hCrtmPuV3ppHZvTB7-24" value="Serve on a 8080 port" style="text;strokeColor=none;fillColor=none;align=left;verticalAlign=middle;spacingLeft=4;spacingRight=4;overflow=hidden;points=[[0,0.5],[1,0.5]];portConstraint=eastwest;rotatable=0;whiteSpace=wrap;html=1;" vertex="1" parent="-10hCrtmPuV3ppHZvTB7-6">
          <mxGeometry x="27" y="160" width="133" height="30" as="geometry" />
        </mxCell>
        <mxCell id="-10hCrtmPuV3ppHZvTB7-18" value="" style="endArrow=classic;startArrow=classic;html=1;rounded=0;exitX=0.5;exitY=0;exitDx=0;exitDy=0;entryX=0.5;entryY=1;entryDx=0;entryDy=0;" edge="1" parent="1" source="-10hCrtmPuV3ppHZvTB7-1" target="-10hCrtmPuV3ppHZvTB7-3">
          <mxGeometry width="50" height="50" relative="1" as="geometry">
            <mxPoint x="910" y="510" as="sourcePoint" />
            <mxPoint x="960" y="460" as="targetPoint" />
          </mxGeometry>
        </mxCell>
        <mxCell id="-10hCrtmPuV3ppHZvTB7-20" value="" style="endArrow=classic;startArrow=classic;html=1;rounded=0;entryX=1;entryY=0.5;entryDx=0;entryDy=0;" edge="1" parent="1" target="-10hCrtmPuV3ppHZvTB7-6">
          <mxGeometry width="50" height="50" relative="1" as="geometry">
            <mxPoint x="1150" y="380" as="sourcePoint" />
            <mxPoint x="1140.0000000000002" y="370" as="targetPoint" />
          </mxGeometry>
        </mxCell>
        <mxCell id="-10hCrtmPuV3ppHZvTB7-25" value="" style="endArrow=classic;startArrow=classic;html=1;rounded=0;entryX=1;entryY=0.5;entryDx=0;entryDy=0;" edge="1" parent="1" target="-10hCrtmPuV3ppHZvTB7-3">
          <mxGeometry width="50" height="50" relative="1" as="geometry">
            <mxPoint x="800" y="380" as="sourcePoint" />
            <mxPoint x="1010" y="390" as="targetPoint" />
          </mxGeometry>
        </mxCell>
        <mxCell id="-10hCrtmPuV3ppHZvTB7-26" value="Actor" style="shape=umlActor;verticalLabelPosition=bottom;verticalAlign=top;html=1;outlineConnect=0;" vertex="1" parent="1">
          <mxGeometry x="1160" y="350" width="30" height="60" as="geometry" />
        </mxCell>
      </root>
    </mxGraphModel>
  </diagram>
</mxfile>
